<?xml version="1.0" encoding="UTF-8"?>
<svg id="_레이어_1" data-name="레이어_1" xmlns="http://www.w3.org/2000/svg" version="1.1" viewBox="0 0 878.7 878.7">
  <!-- Generator: Adobe Illustrator 29.2.0, SVG Export Plug-In . SVG Version: 2.1.0 Build 108)  -->
  <defs>
    <style>
      .st0 {
        fill: #d59efa;
      }

      .st1 {
        fill: #010101;
      }

      .st2 {
        fill: #fe06fe;
      }

      .st3 {
        fill: #fdbbfe;
      }

      .st4 {
        fill: #f8f7f8;
      }

      .st5 {
        fill: #e277fe;
      }

      .st6 {
        fill: #d09ff6;
      }

      .st7 {
        fill: #d2a2f6;
      }

      .st8 {
        fill: #d8a6fd;
      }

      .st9 {
        fill: #bb90db;
      }

      .st10 {
        fill: #e539ea;
      }

      .st11 {
        fill: #b591d1;
      }

      .st12 {
        fill: #d5a3fb;
      }

      .st13 {
        fill: #020202;
      }

      .st14 {
        fill: #d4a1fa;
      }

      .st15 {
        fill: #d3a1f9;
      }

      .st16 {
        fill: #d49df9;
      }

      .st17 {
        fill: #d6a6fa;
      }

      .st18 {
        fill: #303030;
      }

      .st19 {
        fill: #d7a6fb;
      }

      .st20 {
        fill: #d09ef6;
      }

      .st21 {
        fill: #fef7fe;
      }

      .st22 {
        fill: #d4a2f9;
      }

      .st23 {
        fill: #d291f4;
      }

      .st24 {
        fill: #efcdef;
      }

      .st25 {
        fill: #d29bf6;
      }

      .st26 {
        fill: #d3a2f8;
      }

      .st27 {
        fill: #d5a6f9;
      }

      .st28 {
        fill: #ca9aee;
      }

      .st29 {
        fill: #d49bf9;
      }

      .st30 {
        fill: #d6a8f9;
      }

      .st31 {
        fill: #c999ed;
      }

      .st32 {
        fill: #d6a3fb;
      }

      .st33 {
        fill: #d2a0f8;
      }

      .st34 {
        fill: #ca99ef;
      }

      .st35 {
        fill: #da82f9;
      }

      .st36 {
        fill: #fe00fe;
      }

      .st37 {
        fill: #fc01fc;
      }

      .st38 {
        fill: #f7f6f7;
      }

      .st39 {
        fill: #d59bf9;
      }

      .st40 {
        fill: #d5a1fb;
      }

      .st41 {
        fill: #cd9cf2;
      }

      .st42 {
        fill: #cf9ef3;
      }

      .st43 {
        fill: #d69afa;
      }

      .st44 {
        fill: #666566;
      }

      .st45 {
        fill: #141216;
      }

      .st46 {
        fill: #c8a6e0;
      }

      .st47 {
        fill: #b68ad7;
      }

      .st48 {
        fill: #f9f2fc;
      }

      .st49 {
        fill: #fefcfe;
      }

      .st50 {
        fill: #fe20fe;
      }

      .st51 {
        fill: #d7a3fd;
      }

      .st52 {
        fill: #d8a8fd;
      }

      .st53 {
        fill: #caa0e9;
      }

      .st54 {
        fill: #d595f9;
      }

      .st55 {
        fill: #0a0a0a;
      }

      .st56 {
        fill: #feb0fe;
      }

      .st57 {
        fill: #fefefe;
      }

      .st58 {
        fill: #040404;
      }

      .st59 {
        fill: #d3a5f6;
      }

      .st60 {
        fill: #d6a2fc;
      }

      .st61 {
        fill: #d5a3fa;
      }

      .st62 {
        fill: #cb94ee;
      }

      .st63 {
        fill: #d6a1fc;
      }

      .st64 {
        fill: #d7a5fd;
      }

      .st65 {
        fill: #fdfdfd;
      }
    </style>
  </defs>
  <path class="st57" d="M90,484.7v-159h698v159c-.3.9-.6.9-1,0-2.1-.8-3.3-2.8-3-5l-1.5-1.9c.9-5.2.3-10.5-1.8-16,1.9-4.5,2-7.8.3-10.2-4-.2-7.9,1.1-11.9,3.9-5.6-1.2-11.1-.3-16.6,2.9-8.4-3.6-12-3.4-10.7.8l-1.8,1.4-2.2,1.1c-4-1.2-7.6-2.9-10.8-5.1-.3.9-.6.8-1,0-1.3-.6-1.9-1.6-1-2.6,5.8-3.4,8-7.5,7.6-14.3l8.7-1c4.7-.5,6.3-2.1,4.7-5-3.3,1.6-10.5-1.4-14.1-3.2s-4.2-2.5-6.1-3.9c-10.2-10.6-20.8-16.6-35.8-18.9,1,1.6.3,1.9-2,1-1.6,2.9-7.7,1.6-8-2l-2-.9,1.2-13.2-1.2-2c-3.9-.3-32.1-1.5-32.4.5,5.1.7,15.5,5.4,10.4,10.5l-3.3.7c-40-5.4-80.2-7.6-120.7-6.5-2.2-.3-4.2-1.1-6.1-2.2-.4,1.6-2.2,1.3-3,0l-2.2,1.8c-9-.2-24.1-2.6-30.8-7.8-1.9-.1-2.6.2-2,1,3.5,0,10.9,2.9,9,7,0,.8,0,2-.6,2.1-18.6,3.4-40.5,7-59.2,8.8-3.6,1.2-5.9.9-7.1-1-2.8-1.5-1.1-10.1,2-10.5l-2-.9c.5-18.4.8-36.9.7-55.4l1.3-.7-1.1-.8c2-4,2.1-7.2.1-9.7l-1.9,1.6c-16.3-1.6-32.7-1.4-49.1.7,6.7,1.4,13,3.7,18.9,6.9l.2,2.4c.8,0,1.9.3,2,.9.5,5.1.8,23.7,0,28.1l-2,1.5-1.1,2c-2.1.4-17.3.2-18.2-.7s-.5-.8-.7-1.3l-2.1-1.2c-.9-8-.9-18.1,2-25.6-1.1-.9-1.8-2.3-2-4.2l-.7,2h-33.9c-2.5,1-1,2.6,4.3,4.6l-.7,2.4c1,6.2.7,12.9,0,19-5.1.9-11.8.8-17,0-.8,0-1.6-.2-1.9-.9-.6-1.3-.7-16.2,1.9-16.6-1.5-1-1.6-2.5-.2-4.4-1.6-.6-2.2-1.9-1.8-4.1l-.9,2.1c-11.8-.3-23.6-.3-35.4-.1l-.2,1.9c3.6.1,6.8,1.4,7.4,5.4-.7,18.1-.3,36,1.2,53.5l-2.1,1.3c-1.8,3.1-4.4,1.1-4-2-.2.9-.6,1.4-1.5,1.6l-14-4.4c-1,2.8-2.5,3.8-4.5,2.8-.7.6-1.7,1.1-2.2.6-1.5-1.6-2.1-34.7.9-39.8-1.1-.3-1.7-1.6-1.7-3.8l-.7,2h-30.6c5.3,1.5,9.1,4.2,11.2,8.2,0,31.6,0,63.2.1,94.8l-1.1,4c-3.2,1.4-6.5,2.3-10,2.8-46.5,1.4-92.2,5.2-136.9,11.5-4.3,1.9-8.4,2.4-12.1,1.7Z"/>
  <path class="st57" d="M788,484.7v68H160v-3.1c2.8-3.5,10.8-11.6,14.4-13.7s2.2-1.2,3.6.7c1-2,2.8-3.8,5-4,11-9.7,24.1-20.6,36.9-27.8s4.6-1.8,7.1-2.2l1-1,6.7-1.5c145.1,7.6,293.5,7.7,437.7,2.6,26.3-.9,52.7-2.4,78.7-6.7,13-2.1,25.6-4.4,35.9-11.4h1Z"/>
  <path class="st57" d="M218,500.7c3.2-.5,3.3,1.3,1.5,3.7-12.4,9.3-24.9,18.4-37.5,27.3-1.2,1.6-2.5,3.2-4,5-.3.2-1.6.2-2.5,1-5.3,4.2-11,10-15.5,15h-70v-66l3.9-.7c38.4,8.4,77.8,12.6,118,12.7,2.2.3,4.2,1,6.1,2Z"/>
  <path class="st36" d="M249,468.7c1.6-1.9,2.7-1.5,3,1,4.5.7,9.1.8,13.8.3l.2,1.7c-12.7,11.4-28.2,21.6-44,28,.3,3-2.7,3.8-4,1-25.5,0-54.1-2.3-79.5-5-15.9-1.7-33.7-3.2-48.5-9v-2c12.9-5.3,28.6-6.5,42.5-8,38.7-4.1,77.8-4.7,116.5-8Z"/>
  <path class="st36" d="M706,448.7c2.5-3.1,9.9,2.5,6.3,5.9-4.3,1.6-6.8,2.9-7.2,7.7-1.1,12.2-3.5,22.7-14.8,29.4,3.2,1.2,5.1,2.9,5.7,5,2.4.2,5.2.7,7,2,9.8,0,19.4-1,29.1-3.1s11.7-2.6,8.9-6.9c-2.4,2.3-9.6-3-8-6-6-6.7-7.2-12.4-3.8-21.1l-2.2-3.9c-.9-.3-.9-.6,0-1,4.6,1.3,8.4,1.2,13,4,3.2-2.5,6.7,2.6,7.6,5.8-.4,9.6,2.6,16.4,11.9,19.9l.5,2.3c8.2,1.8,17.6-.5,21.6-8.4l2.4-.6c2.2.9,3.3,2.6,3,5-.2.8-.3,2-.9,2.5-16.1,14.8-109.6,17.3-134.6,18.4-124.4,5.5-249.6,3.2-373.9-2-16.5-.7-33-.6-49.5-2l2.6-4.1c16.6-11.4,33.7-20.8,52.1-28-6.5,1.3-9.8.3-9.8-2.9.7-1,1.4-1.9,2.2-2.8,4.1-4.3,29.3-17.1,35.3-18s2.3-.2,3.5-.2c3,3,2.9,8.9,0,12-3.3,4.7-11.3,7-17,7,1.1,1.4,3.5,1.7,7,1,3.4-2.5,6.6-2.5,10,0,3.6,2.5,4.1,12,2,16,3.9,1.2,26.5,2.4,27.7.2l1.1-5c18.3-.6,36.3-.3,54.2.8,1.4.5,2.4,1.8,3,4,1.4,0,2.7.6,1.2,1,3.6.3,22.3.4,23.6-1.2,1.3-7.3,2.2-14.6,2.5-22.1,1-.8,2.9-1,5.7-.8,4.7-4.1,12.8-3.2,18.7-1.9,14.1-1.7,28-2.7,41.7-3.2l1.6,1.2c4.3-1.1,3.4,17.5,2.9,18.4s-.5.9-.6,1.4c-15.3.7-30.8.5-46.4-.7,3.2,2.5,6.8,4.5,10.6,6.1l1.5,2.7c5,0,9.9-1.6,14.8-4.7,25.2-1.4,50.3-1.1,75.2.7.9-2.9,1.5-2.4,3,0,7.3.7,11.1-.2,8-8l-2,1.3-14.5-5.3c-7.6,9.1-15.9,8.8-26.9,8.3-.2,0-.5-.6-.7-1.3-2.9-5.2-3.4-15.1,0-20,8.4-4.2,18.9-4.3,28-2,.6-1.9,1.4-1.9,2,0l6-1c7-3.1,18.7-4.5,26-2,5.6,3.1,2.8,12.5-.5,17.3l7.4,4.5v2.3c1.1-.1,2.1,0,3,.5,12.4-4,26.3-5.2,39.1-2.5,1.2-.8,2.8-.7,4,0,1.7.3,3.4.7,5,1,4.2-2.2,5.3-5.9,3-10l-2.5.9c-5.1-2.4-10.9-4.1-16.4-4.9-1.3,3.5-3.8,7.4-7.4,8.8s-9.1,1.7-9.8-.8c-2-6.3-2-12.7,0-19,3.2-2.5,7.7-3.6,13.4-3.1,2.6-1.5,4.5-1.4,5.6.1.7-2.8,3.7-2,3,1,8.6-.4,16.9,0,25,1l1.4.2c.4,16.6.8,33.5,1.2,50.6l1.5,2.2c3.3,1.4,13.3,2.1,15.1-.6s2.7-18.8,2.9-21.8c.6-10.3.9-20.6,1-30.9l2-3.7c.8-.6,1.8-1.3,2.8-1.1,6.9,1,17.7,3.2,22.2,8.1Z"/>
  <path d="M377,338.7c2.3,2.5,2.3,5.8,0,10-.6,14.5-.6,29.1,0,43.7,0,6.6-.9,13-2.9,19.1-.7,1-21.3.2-23-.9-2.4,5.1-8.8-.7-4-4-3.1-1.6-20.1-2.1-21.6,0l-.6,4.2c-8.6,1.7-17.5,1.6-26.8-.2-1.7.3-2.1-1.4-1-5-.9-.3-.9-.7,0-1,.5-4.3-1-7.7-1-11.5-.2-14.3.3-28.7,0-43-.9-5-6.1-2.6-7.5-4.5s.5-4.8.6-5c1.3-1.4,33.2.9,37.9,0,1.6,2.3,1.7,5.2.3,8.6-.2,6.3-.5,12.4-.8,18.4.5-2.5,2.5-2.9,3.2-.5h15.9c.7-1.2,1.1-1,1.4.5-2.3-.5-2.9-1-.6-1.5.4-6.2.2-12.3-.4-18.5-3-5.2-10.3.2-5.4-9.1h36.4Z"/>
  <path class="st36" d="M656,401.7c3.4,2.2,2.9,11.4,0,14,0,.8-.3,1.9-.9,2-4,.4-25.2.6-28-.4s-1.7-.7-2.1-1.6c2.7.7,4.4,2.1,5,4,8.1,1.3,16.5,1.6,25.3,1l.7,1c3.3,2.2,3.4,11.9,0,14-.2.8-.7,1.9-1.3,1.8-11.9-1.7-26.9-4.6-38.5-7.5-3.7,0-5.7-1.1-6.2-3.3-.7.3-1.6.5-2.1,0-2.1-1.9-.6-18.7-.1-22.6-.9-.6-1.6-1.3-1.8-2.5l-1.8,1.4c-8.1-1.2-16.6-.8-24.8-.3,3.9,1.2,6.1,2.7,7.4,6.6s1.5,14.5-2.8,13.3c-.1.8-.5,2-1,1.9-22-.6-44.5-2.5-66.4-4.6l-.6-1.3-1.2-1.9c4.5-6.1,7.8-12.6,9.6-19.6l1.6-1.5c-2.1-.3-2-1.7,0-2,33.8,1.3,64.8-.8,99.4,3.1s20.5,3,30.6,4.9Z"/>
  <path d="M224,372.7l6,5c2.1.3,5.2-.5,7,0,.4,1,.7,1.9,1.8,2.4l-3.6,44.8c1.1.6,2,1.4,1.7,2.8.7.3,1.3.7,2,1,3.1,1.4,1,8.7-1.2,9.9l-27.5-.7c-11.4-1.4-18.7,3.5-25.1,12.3l-2.2.5c-.3.3-2.9,2.1-3,2v-70.4c.8-3.6-6.2-5.2-5-8.1s15.8-1.9,18.5-1.6,3.6,2.6,6,3,13.1.3,16.2-.8,4.5-3.3,6.2-3.8,1.6,1.4,2,1.6Z"/>
  <path d="M431,327.7c1.2,3.8,1.1,8.2-.4,13.1l-.2,47.6c-.4,5.4-1.7,19.1-4.7,22.8s-20.6.3-22.7-.5c-4.2,5-8-4-4-6.5-.8,0-2-.3-2-.9-.2-2.9-.5-25,0-26.2s1.2-1.1,2-1.4l-1.2,1.9c-4.6.7-19.1,1.7-17.8-4.9-3.2,1-4.4-2.2-1-3h20v-30.5l-6.5-3.5-27.5-8c5.1-.2,10.4.3,15.5,0,12.9-.6,38.9-3.3,50.5,0Z"/>
  <path d="M746,433.7c3.9,2.9-1.4,4.5-4.7,5-3.3,0-6.2.6-8.5,1.9-.1,6.3-2,9.8-7.3,13.2l.6,2.9c.3,0,.7,0,1,0v1c1.3.7,2.2,1.9,2.2,3.4-3.3,8.9-2.5,14.6,3.8,21.6,2.9,2.6,4.6,3.9,8,6,.8.5,1.7,1.1,1.7,1.9.2,4.6-34.7,10.2-39.7,7.1-2.2,0-4.5-.4-7-1-15.3-5.6-4.3-6.6,1-13.5s4.2-21.3,8.1-26.9,4.8-2,6.9-4.1c.2-.3-5.3-3.2-6-3.5-2.6-1.5-4.2-3.9-4.8-7.2l-16.5-.8c-2.4-.2-3.7-.8-4.7-3.1-4.3,3.1-5-9,0-6,.2-1.9.9-2.9,2.2-3.1l21.4-4.9c3-2.6-8.4-10.6-10.7-11.6v-2.4c-1.1.7-3-.7-2.9-2,3-1.7,5.8-.5,9.2.3,19.4,4.5,18.6,11.4,31.5,19.5,4.4,2.8,10.4,3.6,15.3,6.2Z"/>
  <path d="M270,359.7l2,2.6c-3.3,5.3-3.1,37.4-1.6,39.9.7-.5,1.6-.3,2.6.5,2-1.6,3.2-5,3.6-5.1.9-.1,14.4,4.3,16.4,5.1,2.7,3.7-.7,17.9-7,14-5.5-1.3-10.8-1.1-15.8.6,0,17.1-.7,34.1-2.3,50.7-.4.6-.8,1.1-1.3,1.6-1.6,1.4-11.8.6-14.6.1-1.1-.1-2.2,0-3-1-2.2-32.7-.4-65.7-1-98.5-.3-2.4-3-3-4.7-4.3l-14.3-6.2h41Z"/>
  <path d="M656,401.7c-.7-7.4-6.8-7.1-13-9,.8-.9.8-3.5,1.1-3.9,1.2-1.1,29.3-.6,32.4-.2s1.3,2,1.4,2.1l1.4,1.5c-2.4,12.8-3,26.1-1.8,39.8-.9,2-.8,4.5.3,7.4.8,4.5,1.2,56.8-4,60.1s-11.7.3-13.8-.9c-.4-.2-2.1.5-2.8-.2-2.8-2.5-.4-45.8-1.2-52.8-8.1-1.1-16.4-1.4-25-1-.7-.1-1.7-1.2-3-1-3.7,1-4.3-3.9-.6-5.2l24.2.5c1.7-.1,3.2-1.2,4.4-3.4.3-4.2.2-9.7,0-14l-1.3-.4c-8.1-.1-16.3-.6-24.7-1.6-1.8-.8-3.8.3-5-4h31c-.3-4.5.4-9.5,0-14Z"/>
  <path class="st36" d="M497,395.7c2.5-2.6,4.6,1.1,4.4,4-.2,4.6-10.4,17.1-14.1,20.4l-2.3-.4-4,2.2c-15.8,1.3-31.4,2.9-46.9,4.9l-1.1-2.1c-1,2.8-4.2,1.9-4-1-.5,0-.9,0-1.3-.2-1.7-.8-34.2-.3-35.9.6s-.8,1.6-.7,1.7c5.4,1.3,7.7,3.3,7,5.9l-2.3,1.8c-13.4,3.6-26.6,7-39.7,10.2-1.3,3-7.3,2.1-8-1-3.4-2-3.2-14.3,2-13l3-3c15.5-5.8,31.1-10.9,47-15.3l4,1.3.4-1,20.7-.5c1.5-1.4,2.4-2.4,2.7-4.9l2.2-.6,67-10Z"/>
  <path d="M490,387.7c9.1,2.7,23.5,5.3,33,6,2.1,0,2,1.5,0,2,.4.3.9.6,1.2,1,2,2.7-8,18.1-10.4,21.1,1.1.4,1.2,1.6,1.3,2.8l.8-.9c8.5,2.3,17,3.1,25.7,2.4,2.3.5,4.3.9,3.5,3.6,3.7,3.3,6.6,7.6,9,12,6.7,3.9-1.4,11.5-6,13-.6.2-1.2.3-1.7.3-5.6-.3-30.2-16.7-36.5-21.1l-1.7-3.2c-5.2,2.9-10.3,6.6-15.3,11-11.6,7.4-25.1,15.1-38.7,16-1.8,4.5-8.4,2.2-4.4-2.4,11.3-8.6,21.5-18.5,30.8-29.3l4.6-2.3c3-3.5,16.2-17.3,14.3-21.7s-1.6-1.6-2.3-2.3c-3.1-3.4-5.2-4.6-9-7-1.1-1.2-.5-1.5,2-1Z"/>
  <path d="M781,451.7c1.9,1.4,1.9,4.5-.2,9.4,6.2,16.7-2,31.4-20.8,27.6-6.3-2.3-12.6-6.6-13.8-13.7s1.6-9.5-6.2-14.3c-2.7-12.7,9.8-4,12.3-4.2s6.5-3.6,10.3-3.8,4.5,1.3,6.6.8,5.3-5.1,10.1-3.7,1.5,1.7,1.7,1.8Z"/>
  <path d="M470,330.7c-1.5-1.5-5.8-1-5-4,4.5.8,12.4-1.1,16.3,0s.6,2,.7,2c.9-.1,1.5,0,1.5.7,0,6.3-.7,48.3-2.6,50l-5.9.3c-6-1.7-3.8-2.7-4-9-2.7-3-2.9-5.4-.5-7.1.6-7.7.3-15.2-1-22.2,1.6-3,1.8-6.6.5-10.7Z"/>
  <path class="st1" d="M535,329.7c2.5,2.1,2.9,3.6,1.2,4.5-12.1-1.7-15.4-1.2-16.2,11.5,5.4,1.8,8.2-.4,13,2,5.3,3.9,9.8,10.6,0,10-5.6-2.4-10.2-5.6-16-8-1.8,1.1-2.7,1-2.7-.2-6.1,5.3-12.5,8.4-19.3,9.2-.5-.3-4.6-1.4-2.9-3.9s9-6.4,11.4-9.1,5.8-7.2,6.5-11c-3.3-1.2-7.3-.9-12,1-2-.7-5.3-2.5-5-5,9.4.4,19.1,1.9,28.5,1,5.6-.5,7.8-3.6,13.5-2Z"/>
  <path class="st13" d="M467,340.7c2.6,2,.8,4-2,3l-7-1,.7,1.1c-2.2,4.4-2.4,8.1-.7,10.9,2-2,7.1,0,7,3,4.8,4.6,5.2,13-3,12-4.3-2.5-4.9-5.2-8-9-2.9.5-5.5,2.4-7.8,5.8-2.6,3.1-5.3,4.5-8.2,4.2-1.2-.5-4.9-.4-4-2.5s4.8-5.5,6.2-7.8c2.5-4.3,3.9-7.9,4.8-12.7.5-2.7-1.2-3.7-5-3-1.7-.7-4.6-1-5.5-3-1.4-3.2,5.4-1,7-1,5.4.1,15.1,1.6,18.5-3,.3-.9.6-.8,1,0,2.1.6,5.3,1,6,3Z"/>
  <path class="st58" d="M592,327.7c1.1.5,3.1,11.6,2.5,11.7s-1-.3-1.5-.7l-.3,1h-26.9c-1.3,1.9-3.1,1.2-3.8-1l2,1.1c-1,2.5-.7,4.7,1,6.9,3.7.1,13.5.7,16.3-.2s2.3-3.7,3.3-3.9,6.9,1.4,8.4,2.1c1.8,1.4,3.2,3.7.5,4.9-12-.9-23.8-.6-35.7.8l-2.8-.7c-8.9-3.7-2.4-2-3-7.5s-4.6-2.2-4-5.5h33v-7c-6,.7-13.7-.9-19.4,0s-4.2,2.8-5.9,2.7-8.6-3.1-6.7-4.8c9.8-.1,19.7.1,29.5,0s7.5-2.1,13.5,0Z"/>
  <path class="st20" d="M678,390.7c.5.3,2.8-.6,3,.5s-1,12.6-1,15.5c2.9,7.9,3,17.1,0,25-5.1,3-.4,5,0,6,3.1,1.5,3.5,2.9,1,4,0,10.5-.4,22.8-1,33.5s-2.5,23.2-3.4,24.6-13,1.1-15.5.4-.8-1.4-1-1.5c2.3-.4,12,.7,12.9-.1s3-19.6,3.1-22.3c1.4-25.2-2.3-53.2,0-78s1.5-4.9,2-7.5Z"/>
  <path class="st36" d="M688,408.7c1.7.1,3.3.5,5,1,3.9,2.9,16.2,9.1,12.1,15.3s-19.8,3.5-25.1,6.7c0-8.3,0-16.7,0-25,2.4,1.4,5.5,1.3,8,2Z"/>
  <path class="st1" d="M552,360.7c-2.9-.9-8-2.4-8-6,12.1.4,28.8,2.6,40.5,1s4.5-3.8,6.7-3.8,6.6,1.6,7,1.8c1.1.6.6,1.9.7,2,2.9,2,1.6,3.6-1.8,3.3-6.6-.7-12.8-.5-18.7.7v12.8c.7,7.2-5.6,5.5-10.5,4.1-2-2.3-.8-13-1-17-4-1.5-9-1.1-15,1Z"/>
  <path class="st33" d="M377,338.7c.3,2,3.9,1.9,4.1,2.5.5,2.5-1.8,5.2-2.1,7.9-.6,5.2-.3,15.1,0,20.5s-.7.8,1,3c1.9,8.1,1.6,35.2-3,41.1s-25,1.7-26.9.2-1.3-2.7.9-3.2h22c5-19.7-.2-42,2-61.5s3-6.5,2-10.5Z"/>
  <path class="st51" d="M431,327.7c.9.3,4,1.1,4,1.6.7,2.1-3,8.3-3,8.9v57c0,1-1.6,8.7-2,10.5s-1.2,5.4-2.6,5.9c-3.5,1.2-17,0-23.4,1.1-2.7.1-3,0-1-2h22c1.1-8.5,3.5-17,4-25.5,1.2-19.1-2.2-38.7,2-57.5Z"/>
  <path class="st8" d="M482,328.7c.5.3,2.7-.7,3.1.5-.3,17.2.8,34.4-2.1,51.4-3.2.7-5.3-.2-7.9-.9l4.9-1.6,2.1-49.4Z"/>
  <path class="st12" d="M237,377.7c.3,0,1.9,3,4,2l-4,48c-.9-.4-3.5-.5-3.9-1.1l3.9-48.9Z"/>
  <path class="st28" d="M270,359.7c.5,2.3,3.8,1.8,4,2,.3.3-1.9,6.1-2,8.5-.6,8.4,0,18.5,0,27s-.6,4.4,1,5.5c-1.6,1.3-2.5,2.4-5,2,1.2-11.3-1.6-25.6,0-36.5s3-5,2.1-8.4Z"/>
  <path class="st40" d="M781,451.7c.6.3,2.7-.7,3.1.5,1.1,3.9-1.7,7.5-1.8,10.1-.2,4.6,5,8.3,1.8,17.3s-14.8,12.3-24,9c13.5.9,22.3-6.6,21-20.6s-2.1-5.6-2-7.8,2.7-5.6,2-8.6Z"/>
  <path class="st55" d="M542,366.7c2.9,1.5,3,3.8-.2,4.4-13.1-.7-26.5-1.1-39.7-.3-2.5,1.9-4.8,2.6-7.1,1.9-1.6-.6-8-2.7-8-4.5s2.3-.5,2.5-.5h40c1.2,0,4-3.6,5.1-3.8s5.9,2.2,7.4,2.8Z"/>
  <path class="st17" d="M239,428.7c.7.4,4,2.3,4.1,2.6s-1.9,6.2-2.2,6.7c-2.1,3.5-6.8.7-10.3.6-7.2-.2-22.5-1-28.8.3s-11.2,11-16.7,14.3c-2.7,1.7-2-1-2-2.5.2-.3.2-1.7,1-2.5,2.6-2.9,9.1-9.5,12.7-10.3,6.8-1.5,37.6,1.3,40.1-.4s2.5-7.3,2.1-8.9Z"/>
  <path class="st7" d="M471,370.7c-1.5-4.2-3.7.7-6.5.6s-1.7-1.2-2.5-1.6c7.1-3.5,4.6-5.5,3-12,2.9-2.3,4.6-.3,5,6-2.2-5.4-2.3-11.4-2-17.6l2-1.4c-.7,2.2-3.4,2.8-8.2,1.9-.2,4.7-1.5,7.4-3.8,8.1-1-.6-3.5-.6-3.7-2.5s2.6-9.2,3.7-9.5l7,1c1.3-.4,1.8-2.9,2-3,.6-.3,2.7.7,3.1-.5.6-2.3-.5-6.8,0-9.5,1,1,.9,1,1.1,2.4,1.2,11.3-.4,25.8,0,37.6Z"/>
  <path class="st31" d="M327,340.7c.4,2.2,3.8,1.9,4,2,1.1,1.2-2,5.7-2,6.5v17.5h17v-19c2.6,4.4.2,14.5,1,20h-20.5c-3.7,0-.4-23.5.5-27Z"/>
  <path class="st19" d="M599,355.7c1.5.8,3.9-1.9,3,4h-22v16.5c0,4.1-9.8,3-12,.5,1.6-.3,7.4.5,8,0,1.3-1.3,1-16.1,1-19,6.3-.5,12.7.4,19,.6s2.8,0,3-2.6Z"/>
  <path class="st41" d="M592,327.7c6.8,2.4,1.4,7,4,13h-31s0,6,0,6c-1,0-2,0-3,0v-8h31c3.2,0-2-3.4-2.1-3.6-.2-1.9,1.8-5,1.1-7.4Z"/>
  <path class="st22" d="M746,433.7c.9.5,1.9.9,3,1,3.5,5.6-14.1,5.1-14.9,6s.2,5.8-1.5,9-5.8,3.2-6.6,6.9c-1.4-.4-3.6-1.8-5-2.5,4.2-2.4,8.8-4.9,9.9-10.1s-.2-5.2,0-5.4c.9-.8,15.3.8,15-5Z"/>
  <path class="st59" d="M542,366.7c1.3.5,2.5,1.1,4,1,.4,1.2-.5,4-1.5,4h-42c-.3,0-2.4,2.6-4.2,2.8s-2.6-1.5-3.3-1.8c2.6-1.2,4.5-2.7,7.5-3,8.5-1,23.1-.3,32.1,0s8.7,3.8,7.5-3Z"/>
  <path class="st42" d="M535,329.7c2.5.7,1.4.9,2.9,1.9s2.9-1.2,2.1,3.1h-15c-.6,0-2.2,9.8-5,11-.7-.3-3-1-3-1.5,1-1.6,4.7-11,5.2-11.3,2.2-1.4,10.4.7,13.3.8l-.5-4Z"/>
  <path class="st26" d="M517,349.7c-3.9,2.6-15.2,10.8-19.5,10.6s-1.7-1.1-2.5-1.6c6.7-3,13-6.2,18.7-10.8,1.9-.3,2.5,1.5,3.3,1.8Z"/>
  <path class="st52" d="M593,344.7c1.2.5,3.6,1.4,3.9,2.6,1.4,5.9-8.7,2.4-11.3,2.3-5.4-.1-11.7-.3-17.1,0s-7.3,2-10,1.9-2.6-1.5-3.4-1.9c12-2.3,24.4-.2,36.5-1,2.8-.2,1-2.5,1.5-4Z"/>
  <path class="st61" d="M454,360.7c-2.2,2.8-10.8,12.3-14.1,11.6s-1.4-1.4-1.9-1.6c5.4-3.7,9.6-7.7,13.5-13,1.2.7,1.7,2,2.5,3Z"/>
  <path class="st61" d="M297,404.7c0,.3,0,.7,0,1,0,3.7-.5,11.7-3.9,14.1s-12.4.6-11.1-3.1c1-.6,2.4-.6,4,0,1.3-.2,2.6.4,3.5-1s2.6-10.3,3.5-13c1.2.5,2.3,2.1,4,2Z"/>
  <path class="st45" d="M443,331.7c3.8.5,11.4.2,14.3,1s.6,2,.7,2c1.9,1.4,1.2,2.1-2,2-4.6-1.3-9.6-2.3-14-4-1.3-1.3-.8-1.5,1-1Z"/>
  <path class="st27" d="M533,357.7l4.9-3.5-4.9-6.5c2.2,1.1,8.3,6.1,7.9,8.4s-2.7,3.3-3.6,3.4c-1.8.4-3.1-1.2-4.4-1.8Z"/>
  <path class="st30" d="M552,360.7c4-4.3,9.8-2.8,15-3,0,.7,0,1.3,0,2-4.5-1.6-9.3,2.1-12.6,2.1s-2-1-2.4-1.1Z"/>
  <path class="st9" d="M510,334.7c-4.8-.6-7.2,2.6-12,1,2.7-2.7,7.8-3.6,11.4-2.9s.7,1.5.6,1.9Z"/>
  <path class="st11" d="M445,347.7c.5-3.3-.8-1-2.8-1.7s-1.6-1.1-2.2-1.3c1.8-.9,5-3.3,6-.4s-.9,2.9-1,3.4Z"/>
  <path class="st64" d="M458,334.7c1,.6,3.9-1.6,3,3-.3,0-.7,0-1,0-1.2-.3-2.6-.6-4-1l2-2Z"/>
  <path class="st46" d="M230,377.7c-2.9-.5-4.5-2.7-6-5,2.5,1.3,4.6,1.9,6,5Z"/>
  <path class="st44" d="M490,387.7l-2,1c-1.3-.8-3.5-1.1-4-3,2.2-.3,4.2,1.5,6,2Z"/>
  <path class="st24" d="M693,409.7c-1,2.3-3.8-.7-5-1,1,.1,1.4-.7,2-1,1.3.3,2.1,1.3,3,2Z"/>
  <path class="st10" d="M526,393.7c0,.6-.1,1.4,0,2,0,2.9-2.3,2.7-3,0,.1-.6,0-1.4,0-2,1,0,2,0,3,0Z"/>
  <path class="st18" d="M443,331.7l-1,1c-1.3-.5-3.3-.8-3-2,1.7-.8,3.4.9,4,1Z"/>
  <path class="st49" d="M273,466.7c2.7,3.2,15.7-.9,17,0,0,.6-.5,1.1-1,1.5-7.4,5.8-26.3,10.6-34.7,17.3-9.1,4.8-17.6,10.7-26.3,16.2s-.6.7-1,1c-2.8.1-4.4-.9-5-3,14.6-9.4,29.1-19,44-28-.5-2.1,1.9-5.1,4-3,.7-2.8,1.7-3.5,3-2Z"/>
  <path class="st2" d="M222,499.7c1.2,0,6.5,1.3,5,3-15,9.6-29.8,19.2-44,30-1.4,1.1-1.9.6-1-1,11.1-10.3,23.3-18.2,34.7-27.8s3.1-1.1,1.3-3.2c1.6,0,3.4-1,4-1Z"/>
  <path class="st50" d="M183,532.7c-1.7,1.3-3.3,2.7-5,4,0-2.8,2.4-3.5,4-5l1,1Z"/>
  <path class="st15" d="M286,416.7c-1.3.2-2.7,0-4,0-1.2,1.8-3.8,2.5-7.9,2.2l-2,46.4c-.5,1.2-1.2,2.4-2.1,3.4-.9.5-2.3,2-4,3-2.9-2.2-7.9-.5-11.6-1s-2.3-1-2.4-1c2.9-.6,12.9,1.5,13.9-1.6s2-15.6,2.2-19.8c.6-10.8-.5-21.7,0-32.5,1.1-1,15.8-.7,18,1Z"/>
  <path d="M398,431.7c-.5-1.5-8-4.5-10-4l2.7-6c4.9.8,36.6-1,38.1.3s.1,1.7.2,1.7c1.1,5,1,10.4-.1,16.3,1.1,14.7,0,28.9-2.9,42.6-.8.9-22.2.2-24-.9-.4-.2-2.4.4-2.9,0s.1-2.9-.1-3.9c-17.4-1.1-35-1.4-52.8-.9-1.8.7-2.8,2.6-2.9,5.8-1.3,1.1-24.1.2-27.3-.9-.3-.4-1.1-.6-1-1.5.7-5-.8-9.8-1-14.5-3-1.6-2.9-6.3,0-8-.1-4,0-8,0-12l-1.3-.5c1-9.3-1.2-13.8-6.6-13.5-3.3-1.5-1.9-8.2.6-9.8s37.6-1.2,39.5.1,2.4,2.8-.1,3.6c1.4,1.9,1.4,4.3.2,7.2-1.1,4.5-.5,7.8,1.8,9.8,1.4,0,5.6,1,8,1,13-2.1,26.3-2.8,39.9-2.1-.4-4.1.3-7.4,2.1-9.9Z"/>
  <path class="st57" d="M380,372.7c4.4,5.7,12.3,2,19,3v28.5c0,.3.9,6.2,1.1,6.5.4.4,2.3-.2,2.9,0s.6,1.6,1,2c-18.2,3.1-36.3,12-54,17-1.6.3-3-1-4-4-.1,0,.8-1.8-1.4-2.1-3.6-.5-36-1-37.5.2s-1.3,5.7-1.1,5.9c.3.3,6.6-.3,7.8,3.7s.1,8.9.2,12.3c-13.8,6.6-27.8,13.3-41,21s-2,1.4-3,2l2.1-50.4c.9-2.7,7.2-1.5,9.9-1.6,1.1,1.1,9.6,1.8,10.1,1.5s4.7-11.5,4.9-12.5c0,1.6,0,3.7,1,5,4.3.6,25.2,3.1,27-.4l.7-4.6c.7-.8,19.8-.6,21.3,1,.4,7.3,1.5,2.5,4,4s-.3,1.3.2,1.7c1.2,1.1,21.1-.2,24.7.1,3.4-11.2,3-22.9,3.1-34.4s-.6-4.4,1-5.5Z"/>
  <path class="st57" d="M485,419.7c-10.8,12.8-22.3,24.5-36,34.5.9.8,3.8-.2,5-.5.3.6.7,1,.9.9,17.6-2.7,37.9-15.9,51-27.6l2.1-.3c13.4,6.6,27,18.3,40,24,1.7-2.4,2.8-1.8,2,1-9.3.3-18.7,1.1-28,2-1-1.4-1.7-3.4-2-6-8.9-.2-17.9-.3-27.1-.2l-.4,1.7c3.2.4,6.9,2.3,4.5,5.6l-18.5,2c-14,1.2-29.8.3-43.5,2-4,1.7-6,1.3-6-1.2-1.1-4.4-.3-26.7,1.4-30.6s1.6-1.7,2.6-2.2c7.4.7,24.8-3.2,33.5-4s12.4-.7,18.5-1Z"/>
  <path d="M606,401.7l1.9,1.1c-2.3,19.8-2.6,40.8-.8,60.8,1-.2,1.6.6,1.8,2.1,8.9,1,13.6-2.5,16-11,6.5,2.4,14.2,3.4,20,7,2.3,2.5,1.2,10.4-3,9-3.1-.3-6.1-.6-9-1-13.4-1.4-26.8-.1-40.2,3.7l-1.8-.7c-1.7-.8-9.8-5-9.9-6.5s3.4-5.7,3.8-8.1c.6-4.1-.9-6.8-.9-9.4-3.3-8-3.3-18,0-26,0-.1,1-1.1,1-2.4.3-8.1,1.9-14.8-8-15.6-.2-.3.8-3.6,1.2-3.8,1-.7,21.4-.4,24.5-.2s2.6.9,3.4,1.1Z"/>
  <path d="M520,447.7l1.1,2.2c-1.5,7.2-2.6,17.5.9,23.8,4.8,0,11.4.6,15.8-.7,4.5-1.3,9.5-8.2,11.6-8.3s14.2,4.9,16.5,6c3.7,7.6-1,9-8,8-1,0-2,0-3,0-24.8-1.9-49.9-2.2-75.4-.7-4.9,3.3-9.8,4.9-14.6,4.7-5.5-2-10.5-4.7-14.9-8.5l1-2.4,46.9,1.9c-.5-6.3,1.2-13.1-1-19s-6.2-3.2-7-4,.9-4.8,1.6-5.1c2.5-.7,24.5-.1,27.3.6s.8,1.4,1,1.5Z"/>
  <path class="st57" d="M584,422.7c-.2,8.6-.2,17.4,0,26-8.6.7-17.4,2-26,2-1.7.7-3.4.8-5,0l-.9-2.1c5.1-3.8,5.7-7.7,1.9-11.9-2.7-3.9-5.7-7.6-9-11-6-3.4-6.4-.8-12.5-1s-13.8-2.4-17.5-4c-2.2-1.9-1.7-2.9,1-2l68,4Z"/>
  <path class="st65" d="M656,435.7c-.1,1.7.6,4.1-1.6,4.9-5.8,1.9-20.9-1.2-27.9.1l1.5,3c-1,.1-3.4,1.6-5.6,1.9-4.4.5-9,.4-13.4,1.1-3.1-4.6-2.3-15.5,1-20l46,9Z"/>
  <path class="st14" d="M433,424.7c-2.6,9.9-2.7,22.2-2,32.5s2.5,1,4,1.5c-.3,0-4,1.4-4.1,1.6.4,3.2-1.7,22.4-3.1,23.3-3.7-.3-24.4,1-25.7-.1s-.1-1.7-.2-1.7h22.9c4.5-19.1-.6-39.1,4.1-58,.2.1,3.8,1,4,1Z"/>
  <path class="st34" d="M606,401.7c1.1.2,2.7-.2,4,0-1.2,7.2-.9,14.3-1,21.5s1,3,1,3.5c0,6.1-1,13.3-1,20s0,12.7,0,19c-3.2-.3-3.6.2-4.1-3.5-1.6-12.8-.7-38.6,0-52.1s1.4-5.6,1-8.5Z"/>
  <path class="st63" d="M555,478.7c-22.6,1-51-2.6-72.5,0-5.1.6-9.1,5.3-12.2,5.9s-3.6-1.2-5.3-1.8l14.5-6c23.2,1.3,48-1.6,71.1,0,1.9.1,3.7-.2,4.4,2.1Z"/>
  <path class="st47" d="M399,477.7h-52.4c-1.2.1-.4,5.6-2.2,6-2.9.7-19.1.3-22.8,0s-4.2-.5-5.5-2c3.5-.6,25,.9,26,0s0-5.6,1.7-6l54.4.5c.5.3.8,1,.9,1.5Z"/>
  <path class="st48" d="M680,437.7c3.4,2.1,22,1.3,22.9,2.1s1.8,7.6,3.1,8.9c-7.5-3.1-17.2-4.5-25-7,0-.2-.9-3.7-1-4Z"/>
  <path class="st23" d="M520,447.7c.6.3,2.7-.3,3,0,.8.9-.9,4.6-1,6-.3,6.6.2,13.4,0,20-1.3,0-2.7,0-4,0,.7-8.6-1.8-18.1,2-26Z"/>
  <path class="st29" d="M703,498.7c-.9-.3-.9-.6,0-1,8.3.8,27.5-1.9,35-5.5s3-1.2,3-3.5c1.1.7,3.1.6,4,2.5-2,2.5-5.5,3.5-8.5,4.4-9.5,3-23.7,4.6-33.4,3.1Z"/>
  <path class="st54" d="M633,469.7c.9.3.9.6,0,1-7.8,0-17-.7-24.5,0s-12.3,4-15.1,4-2.2-1.8-2.4-2c11.9-4.5,24.9-4.7,37.6-4.1,2.2.1,3.7,1,4.4,1.1Z"/>
  <path class="st21" d="M314,457.7c0,2.7-.1,5.3,0,8-3.3,0-6.7,0-10,0-3.7.8-6,.4-7-1,5.6-2.4,11.1-5.2,17-7Z"/>
  <path class="st25" d="M733,482.7c-3.7-3.3-7.1-6.3-7.8-11.8s4-8.2,1.8-13.2c7.7,1.8,1.6,8.7,2,14.5s2.7,6.8,4,10.5Z"/>
  <path class="st61" d="M553,450.7c0,.7-.3,1-1,1-.7,0-1.3,0-2,0-.4-.9-1.4-.7-2-1,1.9-5.5,10.2-7.5,6-13v-1c.8,1.2,5.3,4.2,4.9,6.4s-4.9,6.4-5.9,7.6Z"/>
  <path class="st60" d="M656,445.7c-7.1-.7-15.7.9-22.6,0s-2.3-1-2.4-1.1c7.4-2,16.5-1,24.1-.5l.9,1.5Z"/>
  <path class="st62" d="M566,470.7c.8.4,2.9.8,3.1,1.7s-.9,6.9-1.2,7.2c-.7.6-8.3.3-9.9-.9,0,0-.3-.8,1.6-1s3.9,1.1,4.5.6c1.4-1.1,1-5.7,2-7.6Z"/>
  <path class="st39" d="M645,461.7c.6.4,2.3-.2,2.9,1.6s-.6,8-1,8.3-3.8,0-4.9,0c-.9-.3-.9-.6,0-1,2.6-2.1,1.9-6,3-9Z"/>
  <path class="st56" d="M304,465.7l-11,1c0-1.5,2.6-1.4,4-2,1.4,1.7,4.8,1,7,1Z"/>
  <path class="st35" d="M703,497.7v1c-3.1-.5-4.2-1-7-2,2.5-1,5.6.9,7,1Z"/>
  <path class="st16" d="M642,470.7c-1.5.9-3.4.7-5,0-1.3,0-2.7,0-4,0v-1c1.1,0,10.6-.3,9,1Z"/>
  <path class="st3" d="M558,450.7c-1.1,1.7-4.1,1-6,1,.3-.4.7-.6,1-1,1.7,0,3.3,0,5,0Z"/>
  <path class="st5" d="M642,470.7v1c-1.6,0-4.2.6-5-1,1.7,0,3.3,0,5,0Z"/>
  <path class="st65" d="M346,399.7c-6-.1-12,.2-18,0-2-2.6-1.2-8.3.2-11.4s16.9-14.1,18.2-12.7-.2,21.3-.4,24.1Z"/>
  <path class="st61" d="M346,399.7v-23c-4.5,3.3-13.3,7.6-16.1,12.4s0,7.2-1.9,10.6c-1,0-2,0-3,0,.4-3.3-.8-8,.5-11s20.6-17.2,21.5-16c-.6,8.8,1.3,18.5-1,27Z"/>
  <path class="st31" d="M298,410.7c6.8-1.1,18.3,1.5,24.3,0s1-5.9,2.2-6.1c2-.3,21.5-.6,22.4,0s0,1.6,0,2c-2.7.5-19.3-.7-20,0s1.7,5.2-2.5,6-24.5.6-26.5-2Z"/>
  <path class="st0" d="M526,395.7c1.5,6.3-6.8,17.1-10,23s-1.1,1.1-1,2c-1.4-.6-2.9-1.2-4-2.5,4.5-6,10.8-15,12-22.5h3Z"/>
  <path class="st63" d="M630,419.7h26c0,.7,0,1.3,0,2-7-.9-16.9,1.2-23.5,0-2-.4-2.2-1.9-2.5-2Z"/>
  <path class="st57" d="M219,387.7c-1.1,15.3-2,30.7-3,46-4.3-.2-8.7.2-13,0-.8,0-1.9-.4-1.9-.9.4-5.2,3.6-37.1,4.8-39.4,1.8-3.5,15.8-15.6,13.1-5.7Z"/>
  <path class="st12" d="M203,433.7c-1.1,0-4,.5-4-.5l5.3-40.7c.3-.9,13.4-12.4,14.3-12.7,3.5-1.5.5,7.6.5,8-.4-1.5,1.7-4-1.5-2s-9.3,6.7-10,9l-4.4,39.1Z"/>
  <path class="st4" d="M398,431.7c.8,2.5-.6,8.9,0,12-14-.2-28,.2-42,0,.7-1.9,2.4-2,4-2.5,12.3-4,25.4-7,38-9.5Z"/>
  <path class="st43" d="M346,425.7c.4.2,2.2-.5,2.8.2s1.2,3.6,1.2,3.8c0,.6-1.8,2-2,3.5-.3,3.1.1,6.3,0,9.5-.7,0-2.6,1.5-4,1-.4-6.5,0-11.9,2-18Z"/>
  <path class="st32" d="M508,426.7c-13.5,14.9-32.4,23.9-51.7,28.8s-4.4,1.5-2.3-1.8c19.3-5.3,37.2-14.7,51.5-28.8,1.1.1,1.8,1.5,2.5,1.8Z"/>
  <path class="st53" d="M554,436.7v1l-9-12c5.2,3,5.8,6.4,9,11Z"/>
  <path class="st38" d="M458,354.7c.6-1.6,1.7-9.6,2-10,.5-.5,8.2.3,10,0v19h-1c.5-4.2-.8-4.5-4-6s-4-1.2-7-3Z"/>
  <path class="st6" d="M465,343.7c-1.3.4-6.2.4-7-1,1.2-.4,6.2-.4,7,1Z"/>
  <path class="st37" d="M398,460.7c0,3.7,0,7.3,0,11-16.6-1-34.6,1.3-51,0-2.8-.6-2.6-7.7,0-8,2.2-2,9.1-4.1,10.5-1-.3-3,14.9-2.4,15.6-2s1.1,1.2,1.4,2c-.8-2.4.7-2.7,2.8-3s16-.9,18.4-.5l2.4,1.6Z"/>
  <path class="st57" d="M398,449.7c.2,3.6,0,7.4,0,11-6.8,1.6-13.7.6-20.5,1s-2.6,1-3,1h-17c-2.2,0-7.2,2.1-10.5,1-3.4-3.5,7.9-9.9,11.2-11s36.6-4.6,39-4,.6.5.8,1Z"/>
  <path class="st61" d="M347,471.7c-1.2,0-3.4.2-3.7-1.5s.7-9.3.9-9.9c.4-1.3,10.2-8.1,11.5-8.5,7.7-2,31.2-4,39.8-4.3s1.7,0,2.5,0c0,.7,0,1.3,0,2l-39.2,4.3c-3.3,2.7-11.1,5.4-11.8,9.7s.3,5.5,0,8Z"/>
</svg>